<mxfile host="app.diagrams.net" modified="2024-05-07T11:03:03.300Z" agent="Mozilla/5.0 (Windows NT 10.0; Win64; x64) AppleWebKit/537.36 (KHTML, like Gecko) Chrome/122.0.0.0 YaBrowser/24.4.0.0 Safari/537.36" version="24.3.1" etag="u_LHhQwyVuVLJ-3NmGLF" type="github">
  <diagram name="Страница — 1" id="Kn24mqLqRiuXbjUWaJmN">
    <mxGraphModel>
      <root>
        <mxCell id="0" />
        <mxCell id="1" parent="0" />
      </root>
    </mxGraphModel>
  </diagram>
</mxfile>
